<?xml version="1.0" encoding="utf-8"?>
<!DOCTYPE svg PUBLIC "-//W3C//DTD SVG 1.1//EN" "http://www.w3.org/Graphics/SVG/1.1/DTD/svg11.dtd">
<svg version="1.1" id="Layer_1" xmlns="http://www.w3.org/2000/svg" xmlns:xlink="http://www.w3.org/1999/xlink" x="0px" y="0px" viewBox="0 0 400 405" enable-background="new 0 0 400 405" xml:space="preserve">
<g>
	<polygon fill="none" stroke="#222222" stroke-width="10" points="200,22.5 360,112.5 360,292.5 200,382.5 40,292.5 40,112.5 	"/>
	<polyline fill="none" stroke="#222222" stroke-width="10" stroke-linejoin="bevel" stroke-miterlimit="10" points="360,202.511 
		280,157.5 280,67.511 200,112.5 120,67.5 120,157.5 40,202.5 	"/>
	<path fill="none" stroke="#222222" stroke-width="10" stroke-linejoin="bevel" stroke-miterlimit="10" d="M120,157.5"/>
	
		<line fill="none" stroke="#222222" stroke-width="10" stroke-linejoin="bevel" stroke-miterlimit="10" x1="200" y1="112.5" x2="200" y2="202.5"/>
	<polyline fill="none" stroke="#222222" stroke-width="10" stroke-linejoin="bevel" stroke-miterlimit="10" points="280,157.5 
		200,202.5 120,157.5 	"/>
	<polyline fill="none" stroke="#222222" stroke-width="10" stroke-linejoin="bevel" stroke-miterlimit="10" points="360,202.489 
		280,247.5 280,337.488 200,292.5 120,337.5 120,247.5 40,202.5 	"/>
	<path fill="none" stroke="#222222" stroke-width="10" stroke-linejoin="bevel" stroke-miterlimit="10" d="M120,247.5"/>
	
		<line fill="none" stroke="#222222" stroke-width="10" stroke-linejoin="bevel" stroke-miterlimit="10" x1="200" y1="292.5" x2="200" y2="202.5"/>
	<polyline fill="none" stroke="#222222" stroke-width="10" stroke-linejoin="bevel" stroke-miterlimit="10" points="280,247.5 
		200,202.5 120,247.499 	"/>
</g>
</svg>
